Inverse Dynamics Generalized Forces
version=1
nRows=5
nColumns=34
inDegrees=no
endheader 
time	pelvis_tilt_moment	pelvis_list_moment	pelvis_rotation_moment	pelvis_tx_force	pelvis_ty_force	pelvis_tz_force	hip_flexion_l_moment	hip_adduction_l_moment	hip_rotation_l_moment	hip_flexion_r_moment	hip_adduction_r_moment	hip_rotation_r_moment	knee_angle_l_moment	knee_angle_r_moment	ankle_angle_l_moment	ankle_angle_r_moment	subtalar_angle_l_moment	subtalar_angle_r_moment	mtp_angle_l_moment	mtp_angle_r_moment	lumbar_extension_moment	lumbar_bending_moment	lumbar_rotation_moment	arm_flex_l_moment	arm_add_l_moment	arm_rot_l_moment	arm_flex_r_moment	arm_add_r_moment	arm_rot_r_moment	elbow_flex_l_moment	elbow_flex_r_moment	pro_sup_l_moment	pro_sup_r_moment	
         11.10000000	          0.00000001	         -0.00000000	         -0.00000000	         -0.00000001	         -0.00000000	         -0.00000001	        -10.98795666	         77.11610703	         -4.68284851	        -18.75210581	         51.47276667	         -8.74690083	         25.98199617	         39.96178439	         -0.46151451	          0.38867330	          1.22312600	         -0.28002454	         -0.11967716	         -0.06009167	        -56.85182436	        -41.87869470	        -42.04698330	        -61.55775661	       -100.70117733	         60.24816706	         69.26855800	       -127.24901310	       -123.82709580	         37.24758513	        108.29992130	         15.93573112	         -5.15029545	
         11.11000000	          0.00000001	          0.00000001	         -0.00000001	         -0.00000001	          0.00000000	          0.00000001	         -5.83568283	         66.76723552	         -6.20197053	         37.81701725	         33.91394698	         -3.98591135	          8.83207892	         14.34782308	          0.38319101	          3.96363696	          0.86715007	         -1.32362886	         -0.10269066	         -0.36549775	        -52.24740397	         43.05527964	        -51.16068312	        -90.12399733	       -108.99598398	         70.49000738	         14.70981514	        -57.53415246	        -52.27901263	         62.49392253	        118.34322624	          0.58205731	         -0.68022453	
         11.12000000	         -0.00000000	         -0.00000000	         -0.00000000	          0.00000001	         -0.00000000	          0.00000000	        -15.90674014	         60.19284679	         -3.34446758	         81.98679455	         22.87264313	          1.28073528	          5.98694581	          3.59735934	          1.37823331	          5.12787583	          0.24363389	         -3.19441130	         -0.13243164	         -0.30431552	        -80.49516475	        106.88925622	        -99.74299202	        -98.14590081	        -43.91336485	         52.49489382	        -26.58622439	         -5.64936464	          1.76009391	         81.75073781	        127.62206538	          4.66297347	         -3.65856750	
         11.13000000	          0.00000001	         -0.00000001	          0.00000001	          0.00000001	         -0.00000001	         -0.00000002	          1.22727082	         43.56027281	         -3.48531245	         82.25808841	          8.58860434	          2.91833891	         -2.54989646	          4.47198414	          1.08535618	          5.69316516	          0.21012378	         -4.58744245	         -0.04163824	         -0.26642917	       -119.79110595	        110.29385370	       -120.95688812	        -32.64195075	          5.45451895	         -0.59303444	        -58.13435344	         32.55810244	         40.50049914	         78.43612179	        137.41139091	         10.30968751	        -17.15375816	
         11.14000000	          0.00000003	          0.00000001	         -0.00000001	          0.00000000	          0.00000001	         -0.00000001	        -22.95763377	         48.94324317	         -1.78773626	         73.64287876	         -1.88502881	          0.76814480	         12.03567695	         -3.82376090	          0.13655401	          4.12563244	          0.02779820	         -3.80335622	          0.03460456	         -0.16467522	        -57.35245480	        157.43891453	       -112.95375166	         13.56407615	         41.13789411	        -44.89960294	        -83.64358436	         60.32460376	         63.59562006	         74.58772640	        146.05947666	          5.77279494	         -9.97467703	
